# xmcd CD database file
#
# Track frame offsets:
#	150
#	8884
#	36019
#	51545
#	61280
#	80303
#	101107
#	124826
#	144849
#	157956
#	179743
#	195844
#	213370
#	238281
#
# Disc length: 3444 seconds
#
# Revision: 0
# Processed by: cddbd v1.5.1PL2 Copyright (c) Steve Scherf et al.
# Submitted via: CDex 1.51
#
DISCID=bf0d720e
DTITLE=Acoustic Blues Duo - '99
DYEAR=1999
DGENRE=Blues
TTITLE0=Crash on the millennium highway
TTITLE1=Easy rider Blues
TTITLE2=Comin' in on a wing and a prayer
TTITLE3=E-mail to the reverend
TTITLE4=Me and the big fat BMW
TTITLE5=Milk cow Blues
TTITLE6=Death bell Blues
TTITLE7=Goin' to Kokomo
TTITLE8=Mr. Crump don't like it
TTITLE9=The banker's Blues
TTITLE10=You gonna quit me baby
TTITLE11=I'll be your baby tonight
TTITLE12=Mississippi Blues
TTITLE13=Nobody's business
EXTD=YEAR: 1999
EXTT0=
EXTT1=
EXTT2=
EXTT3=
EXTT4=
EXTT5=
EXTT6=
EXTT7=
EXTT8=
EXTT9=
EXTT10=
EXTT11=
EXTT12=
EXTT13=
PLAYORDER=
